<?xml version="1.0" encoding="UTF-8" standalone="no"?>
<!-- Created with Inkscape (http://www.inkscape.org/) -->

<svg
   xmlns:dc="http://purl.org/dc/elements/1.1/"
   xmlns:cc="http://creativecommons.org/ns#"
   xmlns:rdf="http://www.w3.org/1999/02/22-rdf-syntax-ns#"
   xmlns:svg="http://www.w3.org/2000/svg"
   xmlns="http://www.w3.org/2000/svg"
   xmlns:sodipodi="http://sodipodi.sourceforge.net/DTD/sodipodi-0.dtd"
   xmlns:inkscape="http://www.inkscape.org/namespaces/inkscape"
   width="36"
   height="36"
   viewBox="0 0 9.5250003 9.5250003"
   version="1.1"
   id="svg8"
   inkscape:version="0.92.5 (2060ec1f9f, 2020-04-08)"
   sodipodi:docname="right.svg">
  <defs
     id="defs2" />
  <sodipodi:namedview
     id="base"
     pagecolor="#121212"
     bordercolor="#666666"
     borderopacity="1.0"
     inkscape:pageopacity="0"
     inkscape:pageshadow="2"
     inkscape:zoom="8"
     inkscape:cx="12.310765"
     inkscape:cy="24.792692"
     inkscape:document-units="mm"
     inkscape:current-layer="layer1"
     showgrid="false"
     inkscape:snap-grids="true"
     inkscape:snap-page="true"
     inkscape:snap-bbox="true"
     inkscape:bbox-paths="true"
     inkscape:bbox-nodes="true"
     inkscape:snap-bbox-edge-midpoints="true"
     inkscape:snap-bbox-midpoints="true"
     inkscape:window-width="1870"
     inkscape:window-height="1016"
     inkscape:window-x="50"
     inkscape:window-y="27"
     inkscape:window-maximized="1"
     units="px"
     width="90mm" />
  <metadata
     id="metadata5">
    <rdf:RDF>
      <cc:Work
         rdf:about="">
        <dc:format>image/svg+xml</dc:format>
        <dc:type
           rdf:resource="http://purl.org/dc/dcmitype/StillImage" />
        <dc:title></dc:title>
      </cc:Work>
    </rdf:RDF>
  </metadata>
  <g
     inkscape:label="Layer 1"
     inkscape:groupmode="layer"
     id="layer1"
     transform="translate(0,-287.47499)">
    <path
       style="fill:#ffffff;fill-opacity:1;stroke-width:0.00959046"
       d="m 2.5760697,287.47499 c -0.1374594,0 -0.2749058,0.0511 -0.3802341,0.15322 -0.2106569,0.20428 -0.2106569,0.53319 0,0.73748 l 3.9925877,3.8718 -3.9925877,3.87181 c -0.2106569,0.20429 -0.2106569,0.5332 0,0.73748 0.2106567,0.20428 0.5498285,0.20428 0.7604854,0 l 4.3728387,-4.24055 c 0.019746,-0.0191 0.037654,-0.0394 0.053698,-0.0605 v -2e-5 c 0.00535,-0.007 0.010498,-0.0142 0.015436,-0.0214 0.014812,-0.0217 0.027772,-0.0442 0.038881,-0.0674 0.011107,-0.0231 0.020355,-0.0469 0.02776,-0.0711 v -10e-6 c 0.03703,-0.12087 0.027785,-0.25199 -0.02776,-0.36772 -0.011109,-0.0231 -0.024069,-0.0457 -0.038881,-0.0674 -0.019749,-0.029 -0.042802,-0.0564 -0.069134,-0.082 L 2.956321,287.62813 c -0.1053284,-0.10214 -0.242792,-0.15322 -0.3802513,-0.15322 z"
       id="rect7664"
       inkscape:connector-curvature="0" />
  </g>
</svg>
